<svg width="720" height="520" viewBox="0 0 720 520" fill="none" xmlns="http://www.w3.org/2000/svg">
  <rect width="720" height="520" rx="28" fill="#F8FAFC"/>
  <rect x="40" y="40" width="640" height="440" rx="24" fill="#EEF2FF"/>

  <circle cx="420" cy="260" r="150" fill="#E2E8F0"/>
  <path d="M420 110C498.32 110 560 171.68 560 250C560 328.32 498.32 390 420 390C383.44 390 349.76 376.56 324 354L420 260V110Z" fill="#2563EB"/>
  <path d="M420 110C360.08 110 307.04 146.16 284 199L420 260V110Z" fill="#93C5FD"/>

  <rect x="120" y="140" width="140" height="180" rx="16" fill="#FFFFFF" stroke="#E2E8F0" stroke-width="2"/>
  <rect x="136" y="162" width="108" height="10" rx="5" fill="#CBD5F5"/>
  <rect x="136" y="182" width="92" height="10" rx="5" fill="#E2E8F0"/>
  <rect x="136" y="206" width="116" height="10" rx="5" fill="#E2E8F0"/>
  <rect x="136" y="230" width="80" height="10" rx="5" fill="#CBD5F5"/>
  <rect x="136" y="262" width="96" height="10" rx="5" fill="#E2E8F0"/>
  <rect x="136" y="286" width="110" height="10" rx="5" fill="#CBD5F5"/>

  <rect x="140" y="344" width="180" height="90" rx="18" fill="#FFFFFF" stroke="#E2E8F0" stroke-width="2"/>
  <rect x="160" y="364" width="96" height="10" rx="5" fill="#CBD5F5"/>
  <rect x="160" y="384" width="128" height="10" rx="5" fill="#E2E8F0"/>

  <circle cx="520" cy="180" r="24" fill="#1D4ED8"/>
  <rect x="504" y="204" width="32" height="44" rx="10" fill="#1E3A8A"/>
  <rect x="492" y="244" width="56" height="10" rx="5" fill="#1E3A8A"/>

  <circle cx="580" cy="340" r="20" fill="#0EA5E9"/>
  <rect x="566" y="360" width="28" height="40" rx="10" fill="#0F172A"/>
  <rect x="552" y="392" width="56" height="10" rx="5" fill="#0F172A"/>

  <circle cx="340" cy="360" r="20" fill="#FBBF24"/>
  <rect x="326" y="380" width="28" height="40" rx="10" fill="#92400E"/>
  <rect x="312" y="412" width="56" height="10" rx="5" fill="#92400E"/>
</svg>
